<svg width="28" height="28" viewBox="0 0 28 28" fill="none" xmlns="http://www.w3.org/2000/svg">
<path d="M25.6849 11.8371L14.8246 1.84565C14.4715 1.52083 14.0066 1.34505 13.527 1.35503C13.0473 1.36502 12.5901 1.56001 12.2509 1.89924L2.26259 11.8876L1.75 12.4001V27.125H11.375V17.9375H16.625V27.125H26.25V12.3571L25.6849 11.8371ZM13.5646 3.10466C13.58 3.10466 13.5705 3.108 13.5639 3.11451C13.557 3.108 13.5492 3.10466 13.5646 3.10466ZM24.5 25.375H18.375V17.9375C18.375 17.4734 18.1906 17.0282 17.8624 16.7001C17.5342 16.3719 17.0891 16.1875 16.625 16.1875H11.375C10.9109 16.1875 10.4658 16.3719 10.1376 16.7001C9.80937 17.0282 9.625 17.4734 9.625 17.9375V25.375H3.5V13.125L13.5646 3.13665C13.5653 3.136 13.5653 3.1354 13.5659 3.13474L24.5 13.125V25.375Z" fill="white" fill-opacity="0.8"/>
</svg>
