<svg width="24" height="24" viewBox="0 0 24 24" fill="none" xmlns="http://www.w3.org/2000/svg">
<path d="M12 14.4C18.6272 14.4 24 16.9072 24 20V24H0V20C0 16.9072 5.3728 14.4 12 14.4ZM22.4 20C22.4 17.792 17.744 16 12 16C6.256 16 1.6 17.792 1.6 20V22.4H22.4V20ZM12 0C13.4852 0 14.9096 0.589999 15.9598 1.6402C17.01 2.69041 17.6 4.11479 17.6 5.6C17.6 7.08521 17.01 8.50959 15.9598 9.5598C14.9096 10.61 13.4852 11.2 12 11.2C10.5148 11.2 9.09041 10.61 8.0402 9.5598C6.99 8.50959 6.4 7.08521 6.4 5.6C6.4 4.11479 6.99 2.69041 8.0402 1.6402C9.09041 0.589999 10.5148 0 12 0ZM12 1.6C10.9391 1.6 9.92172 2.02143 9.17157 2.77157C8.42143 3.52172 8 4.53913 8 5.6C8 6.66087 8.42143 7.67828 9.17157 8.42843C9.92172 9.17857 10.9391 9.6 12 9.6C13.0609 9.6 14.0783 9.17857 14.8284 8.42843C15.5786 7.67828 16 6.66087 16 5.6C16 4.53913 15.5786 3.52172 14.8284 2.77157C14.0783 2.02143 13.0609 1.6 12 1.6Z" fill="white" fill-opacity="0.8"/>
</svg>
