<svg width="26" height="26" viewBox="0 0 26 26" fill="none" xmlns="http://www.w3.org/2000/svg">
<path d="M10.7011 1.92777C12.3859 1.92623 14.0333 2.42442 15.4348 3.35931C16.8364 4.29419 17.9292 5.62378 18.575 7.17986C19.2208 8.73594 19.3906 10.4486 19.0629 12.1012C18.7351 13.7538 17.9246 15.272 16.7338 16.4639C15.5431 17.6557 14.0256 18.4676 12.3733 18.7969C10.721 19.1261 9.00817 18.9579 7.4515 18.3136C5.89483 17.6692 4.56425 16.5776 3.62808 15.1769C2.69191 13.7761 2.19222 12.1292 2.19222 10.4444C2.20244 8.19017 3.10194 6.03103 4.69524 4.43627C6.28853 2.84152 8.44685 1.94005 10.7011 1.92777ZM10.7011 0.333328C8.70132 0.333328 6.74644 0.926335 5.08368 2.03736C3.42092 3.14838 2.12495 4.72752 1.35966 6.57508C0.594377 8.42265 0.394144 10.4557 0.784283 12.417C1.17442 14.3784 2.13741 16.18 3.55148 17.5941C4.96554 19.0081 6.76717 19.9711 8.72853 20.3613C10.6899 20.7514 12.7229 20.5512 14.5705 19.7859C16.418 19.0206 17.9972 17.7246 19.1082 16.0619C20.2192 14.3991 20.8122 12.4442 20.8122 10.4444C20.8122 7.76281 19.7469 5.19101 17.8507 3.2948C15.9545 1.3986 13.3827 0.333328 10.7011 0.333328Z" fill="white"/>
<path d="M25.2222 23.8922L19.49 18.1211L18.3856 19.2178L24.1178 24.9889C24.1898 25.0614 24.2754 25.119 24.3697 25.1585C24.4639 25.1979 24.5651 25.2184 24.6673 25.2188C24.7695 25.2191 24.8707 25.1993 24.9653 25.1606C25.0598 25.1218 25.1458 25.0648 25.2183 24.9928C25.2909 24.9208 25.3485 24.8352 25.3879 24.7409C25.4274 24.6466 25.4479 24.5455 25.4482 24.4433C25.4486 24.3411 25.4288 24.2398 25.39 24.1453C25.3513 24.0507 25.2942 23.9647 25.2222 23.8922Z" fill="white"/>
</svg>
